<mxfile host="www.draw.io" modified="2019-12-30T04:29:04.512Z" agent="Mozilla/5.0 (X11; Fedora; Linux x86_64; rv:70.0) Gecko/20100101 Firefox/70.0" etag="XR4EJegGJ6KuW_OzI36n" version="12.4.7" type="github">
  <diagram id="o7FhQKakExsv8hvBHXit" name="Page-1">
    <mxGraphModel dx="754" dy="436" grid="1" gridSize="10" guides="1" tooltips="1" connect="1" arrows="1" fold="1" page="1" pageScale="1" pageWidth="850" pageHeight="1100" math="0" shadow="0">
      <root>
        <mxCell id="0"/>
        <mxCell id="1" parent="0"/>
        <mxCell id="cTg99P60Ok3OJhrXy8jg-1" value="Actor" style="shape=umlActor;verticalLabelPosition=bottom;labelBackgroundColor=#ffffff;verticalAlign=top;html=1;" vertex="1" parent="1">
          <mxGeometry x="130" y="240" width="30" height="60" as="geometry"/>
        </mxCell>
        <mxCell id="cTg99P60Ok3OJhrXy8jg-2" value="Actor" style="shape=umlActor;verticalLabelPosition=bottom;labelBackgroundColor=#ffffff;verticalAlign=top;html=1;" vertex="1" parent="1">
          <mxGeometry x="360" y="80" width="30" height="60" as="geometry"/>
        </mxCell>
        <mxCell id="cTg99P60Ok3OJhrXy8jg-3" value="Text" style="text;html=1;align=center;verticalAlign=middle;resizable=0;points=[];autosize=1;" vertex="1" parent="1">
          <mxGeometry x="200" y="238" width="40" height="20" as="geometry"/>
        </mxCell>
        <mxCell id="cTg99P60Ok3OJhrXy8jg-5" value="Use Case" style="ellipse;whiteSpace=wrap;html=1;" vertex="1" parent="1">
          <mxGeometry x="170" width="140" height="66" as="geometry"/>
        </mxCell>
      </root>
    </mxGraphModel>
  </diagram>
</mxfile>
